<svg width="599" height="94" viewBox="0 0 599 94" fill="none" xmlns="http://www.w3.org/2000/svg">
<g clip-path="url(#clip0)">
<path d="M5 81H506.437C509.198 81 511.437 78.7614 511.437 76V40.0353C511.437 38.4729 512.167 37.0004 513.411 36.0549L545.972 11.3023C547.761 9.94191 550.238 9.94291 552.027 11.3047L584.529 36.0548C585.771 37.0005 586.5 38.4718 586.5 40.0328V85" stroke="#39D2DF" stroke-width="10"/>
<path d="M6.16 5H40.64V14.92H16.4V26.84H35.12V36.76H16.4V61H6.16V5ZM46.1244 5H56.0444V14.92H46.1244V5ZM46.1244 21H56.0444V61H46.1244V21ZM85.5031 20.36C90.4631 20.36 94.2231 22.0133 96.7831 25.32C99.3431 28.6267 100.623 33.08 100.623 38.68V61H90.7031V39.48C90.7031 35.7467 90.0631 33 88.7831 31.24C87.5565 29.4267 85.5565 28.52 82.7831 28.52C79.7431 28.52 77.2365 29.6667 75.2631 31.96V61H65.3431V21H74.6231L74.7831 23.8C78.1431 21.5067 81.7165 20.36 85.5031 20.36ZM145.964 0.999995V61H136.604L136.444 58.44C134.897 59.56 133.27 60.4133 131.564 61C129.91 61.5333 127.937 61.8 125.644 61.8C121.75 61.8 118.39 60.8667 115.564 59C112.79 57.1333 110.684 54.6267 109.244 51.48C107.804 48.3333 107.084 44.8667 107.084 41.08C107.084 37.2933 107.804 33.8267 109.244 30.68C110.684 27.5333 112.79 25.0267 115.564 23.16C118.39 21.2933 121.75 20.36 125.644 20.36C129.537 20.36 133.004 21.4267 136.044 23.56V0.999995H145.964ZM127.084 53.64C130.23 53.64 132.577 52.52 134.124 50.28C135.724 48.04 136.524 44.9733 136.524 41.08C136.524 37.1867 135.724 34.12 134.124 31.88C132.577 29.64 130.23 28.52 127.084 28.52C123.99 28.52 121.564 29.6667 119.804 31.96C118.097 34.2533 117.244 37.2933 117.244 41.08C117.244 44.8667 118.097 47.9067 119.804 50.2C121.564 52.4933 123.99 53.64 127.084 53.64ZM163.827 61.8C160.52 61.8 157.747 60.7333 155.507 58.6C153.32 56.4133 152.227 53.48 152.227 49.8C152.227 46.3333 153.48 43.56 155.987 41.48C158.494 39.3467 161.454 37.8533 164.867 37C168.28 36.0933 171.56 35.5867 174.707 35.48C174.6 33.1333 173.987 31.4533 172.867 30.44C171.8 29.4267 170.014 28.92 167.507 28.92C165.747 28.92 164.014 29.16 162.307 29.64C160.654 30.12 158.734 30.8933 156.547 31.96L155.667 23.88C160.52 21.5333 165.374 20.36 170.227 20.36C174.92 20.36 178.494 21.64 180.947 24.2C183.454 26.76 184.707 30.84 184.707 36.44V47.24C184.707 49.2667 184.787 50.7333 184.947 51.64C185.16 52.4933 185.48 53.0533 185.907 53.32C186.387 53.5333 187.16 53.64 188.227 53.64H189.507L188.627 61.8H185.027C182.84 61.8 181 61.4 179.507 60.6C178.014 59.7467 176.867 58.6 176.067 57.16C174.787 58.6 173.027 59.7467 170.787 60.6C168.6 61.4 166.28 61.8 163.827 61.8ZM167.987 54.2C169 54.2 170.147 53.96 171.427 53.48C172.707 52.9467 173.827 52.2267 174.787 51.32V42.2C171.587 42.36 168.76 43.0533 166.307 44.28C163.854 45.5067 162.627 47.2133 162.627 49.4C162.627 51.0533 163.054 52.28 163.907 53.08C164.76 53.8267 166.12 54.2 167.987 54.2ZM195.223 5H215.143C228.423 5 235.063 11.0267 235.063 23.08C235.063 29.32 233.383 33.96 230.023 37C226.663 40.04 221.783 41.56 215.383 41.56H205.463V61H195.223V5ZM214.183 33C217.703 33 220.316 32.2 222.023 30.6C223.783 29 224.663 26.5467 224.663 23.24C224.663 19.9333 223.783 17.5067 222.023 15.96C220.263 14.36 217.569 13.56 213.943 13.56H205.463V33H214.183ZM240.734 21H250.014L250.254 25.24C251.427 23.9067 252.92 22.7333 254.734 21.72C256.6 20.7067 258.547 20.2 260.574 20.2C261.214 20.2 261.8 20.2533 262.334 20.36L261.614 30.12C260.6 29.8533 259.454 29.72 258.174 29.72C256.52 29.72 255 30.12 253.614 30.92C252.227 31.6667 251.24 32.6 250.654 33.72V61H240.734V21ZM284.597 61.8C280.384 61.8 276.73 60.8667 273.637 59C270.544 57.1333 268.17 54.6267 266.517 51.48C264.864 48.3333 264.037 44.8667 264.037 41.08C264.037 37.2933 264.864 33.8 266.517 30.6C268.17 27.4 270.544 24.8667 273.637 23C276.73 21.1333 280.384 20.2 284.597 20.2C288.81 20.2 292.464 21.1333 295.557 23C298.65 24.8667 301.024 27.4 302.677 30.6C304.33 33.8 305.157 37.2933 305.157 41.08C305.157 44.8667 304.33 48.3333 302.677 51.48C301.024 54.6267 298.65 57.1333 295.557 59C292.464 60.8667 288.81 61.8 284.597 61.8ZM284.597 53.64C287.85 53.64 290.384 52.4933 292.197 50.2C294.064 47.9067 294.997 44.8667 294.997 41.08C294.997 37.24 294.064 34.1733 292.197 31.88C290.384 29.5333 287.85 28.36 284.597 28.36C281.344 28.36 278.784 29.5333 276.917 31.88C275.104 34.1733 274.197 37.24 274.197 41.08C274.197 44.8667 275.104 47.9067 276.917 50.2C278.784 52.4933 281.344 53.64 284.597 53.64ZM332.942 20.36C336.729 20.36 339.982 21.2933 342.702 23.16C345.422 25.0267 347.475 27.5333 348.862 30.68C350.249 33.8267 350.942 37.2933 350.942 41.08C350.942 44.8667 350.249 48.3333 348.862 51.48C347.475 54.6267 345.422 57.1333 342.702 59C339.982 60.8667 336.729 61.8 332.942 61.8C330.542 61.8 328.489 61.5333 326.782 61C325.129 60.52 323.529 59.72 321.982 58.6V80.36H312.062V21H320.062L321.102 24.68C322.809 23.24 324.595 22.1733 326.462 21.48C328.329 20.7333 330.489 20.36 332.942 20.36ZM331.422 53.64C334.355 53.64 336.649 52.4933 338.302 50.2C339.955 47.9067 340.782 44.8667 340.782 41.08C340.782 37.2933 339.955 34.2533 338.302 31.96C336.649 29.6667 334.355 28.52 331.422 28.52C328.115 28.52 325.635 29.64 323.982 31.88C322.329 34.12 321.502 37.1867 321.502 41.08C321.502 44.9733 322.329 48.04 323.982 50.28C325.635 52.52 328.115 53.64 331.422 53.64ZM377.123 61.8C372.483 61.8 368.51 60.8667 365.203 59C361.95 57.08 359.496 54.5467 357.843 51.4C356.243 48.2 355.443 44.6533 355.443 40.76C355.443 37.0267 356.216 33.6133 357.763 30.52C359.31 27.4267 361.55 24.9733 364.483 23.16C367.416 21.2933 370.91 20.36 374.963 20.36C378.696 20.36 381.843 21.1333 384.403 22.68C387.016 24.2267 388.963 26.3067 390.243 28.92C391.576 31.5333 392.243 34.4667 392.243 37.72C392.243 39.32 392.03 41.1333 391.603 43.16H365.763C366.296 46.68 367.683 49.32 369.923 51.08C372.163 52.7867 374.856 53.64 378.003 53.64C382.323 53.64 386.323 52.5467 390.003 50.36L390.483 58.76C388.776 59.6667 386.776 60.4133 384.483 61C382.243 61.5333 379.79 61.8 377.123 61.8ZM382.163 36.44C382.163 34.36 381.576 32.52 380.403 30.92C379.23 29.32 377.416 28.52 374.963 28.52C372.51 28.52 370.536 29.24 369.043 30.68C367.55 32.12 366.536 34.04 366.003 36.44H382.163ZM399.015 21H408.295L408.535 25.24C409.708 23.9067 411.202 22.7333 413.015 21.72C414.882 20.7067 416.828 20.2 418.855 20.2C419.495 20.2 420.082 20.2533 420.615 20.36L419.895 30.12C418.882 29.8533 417.735 29.72 416.455 29.72C414.802 29.72 413.282 30.12 411.895 30.92C410.508 31.6667 409.522 32.6 408.935 33.72V61H399.015V21ZM438.461 61.8C434.941 61.8 432.275 60.7867 430.461 58.76C428.648 56.68 427.741 54.2 427.741 51.32V29.16H422.061L422.941 21H427.741V12.2L437.661 11.16V21H446.461V29.16H437.661V47.24C437.661 49.3733 437.768 50.8667 437.981 51.72C438.248 52.52 438.755 53.0533 439.501 53.32C440.301 53.5333 441.715 53.64 443.741 53.64H446.461L445.581 61.8H438.461ZM465.001 58.36L448.361 21H459.401L469.641 46.76L480.041 21H491.081L466.041 80.36H456.121L465.001 58.36Z" fill="white"/>
</g>
<defs>
<clipPath id="clip0">
<rect width="599" height="94" fill="white"/>
</clipPath>
</defs>
</svg>
